<svg  viewBox="0 0 512 512" fill="none" xmlns="http://www.w3.org/2000/svg" class="size-6">
<path fill-rule="evenodd" clip-rule="evenodd" d="M215.341 120.273C230.723 124.501 243.451 128 256 128C268.592 128 281.366 124.5 296.789 120.275C297.745 120.013 298.71 119.748 299.687 119.482C315.446 115.177 334.06 110.329 353.428 112.064C392.137 115.53 420.784 134.513 439.005 166.291C456.645 197.055 464 238.816 464 288C464 331.602 446.805 382.359 423.967 421.989C412.481 441.92 399.124 459.824 384.986 472.968C371.276 485.715 354.64 496 336.8 496C309.741 496 294.063 488.898 281.688 481.953C280.222 481.13 278.87 480.36 277.61 479.641C268.554 474.481 264.199 472 256 472C247.8 472 243.442 474.482 234.384 479.644C233.123 480.361 231.772 481.131 230.307 481.953C217.932 488.897 202.254 496 175.2 496C157.362 496 140.727 485.714 127.018 472.968C112.881 459.824 99.5239 441.92 88.0374 421.989C65.1982 382.36 48 331.602 48 288C48 238.578 56.1781 196.847 74.2025 166.149C92.7018 134.642 121.182 115.569 158.507 112.07L158.518 112.069C177.916 110.264 196.556 115.124 212.322 119.444C213.34 119.723 214.346 119.999 215.341 120.273ZM161.488 143.931C134.816 146.433 115.297 159.359 101.797 182.351C87.8219 206.153 80 241.422 80 288C80 324.398 94.8018 369.64 115.763 406.011C126.176 424.08 137.669 439.176 148.807 449.532C160.373 460.286 169.438 464 175.2 464C195.346 464 205.638 459.102 214.648 454.047C215.757 453.424 216.909 452.753 218.11 452.053C227.075 446.827 238.787 440 256 440C273.213 440 284.923 446.827 293.887 452.053C295.088 452.753 296.24 453.425 297.349 454.047C306.357 459.102 316.649 464 336.8 464C342.565 464 351.632 460.285 363.197 449.532C374.335 439.176 385.828 424.08 396.241 406.011C417.2 369.641 432 324.398 432 288C432 241.184 424.855 205.945 411.245 182.209C398.216 159.487 378.863 146.47 350.573 143.936L350.572 143.936C337.68 142.781 324.294 145.933 308.118 150.351C306.885 150.688 305.631 151.033 304.359 151.384C289.95 155.358 273.117 160 256 160C238.906 160 222.088 155.346 207.704 151.365C206.405 151.005 205.125 150.651 203.866 150.306C187.696 145.876 174.338 142.737 161.488 143.931Z" fill="currentColor"/>
<path d="M323.92 83.14C302.92 104.14 278.26 110.14 265.1 111.93C263.897 112.103 262.67 112 261.513 111.629C260.355 111.257 259.298 110.626 258.42 109.785C257.543 108.943 256.869 107.913 256.45 106.772C256.031 105.631 255.877 104.409 256 103.2C258.374 80.7056 268.486 59.7339 284.61 43.87C306.61 21.87 330.61 16.97 343.33 16.02C344.517 15.9117 345.714 16.0701 346.833 16.4838C347.951 16.8975 348.963 17.556 349.794 18.411C350.625 19.2661 351.254 20.2961 351.636 21.4257C352.018 22.5554 352.142 23.7561 352 24.94C349.489 46.9567 339.591 67.4726 323.92 83.14Z" fill="currentColor"/>
<path d="M216 352C229.255 352 240 330.51 240 304C240 277.49 229.255 256 216 256C202.745 256 192 277.49 192 304C192 330.51 202.745 352 216 352Z" fill="currentColor"/>
<path d="M296 352C309.255 352 320 330.51 320 304C320 277.49 309.255 256 296 256C282.745 256 272 277.49 272 304C272 330.51 282.745 352 296 352Z" fill="currentColor"/>
</svg>
