<?xml version="1.0" standalone="no"?>
<!DOCTYPE svg PUBLIC "-//W3C//DTD SVG 20010904//EN">
<svg version="1.0" xmlns="http://www.w3.org/2000/svg"
 width="576.000000pt" height="576.000000pt" viewBox="0 0 576.000000 576.000000"
 preserveAspectRatio="xMidYMid meet">
<metadata>
Created by potrace 1.14, written by Peter Selinger 2001-2017
</metadata>
<g transform="translate(0.000000,576.000000) scale(0.100000,-0.100000)"
fill="#000000" stroke="none">
<path d="M2858 5685 c-3 -3 -45 -7 -94 -9 -318 -14 -638 -188 -835 -456 -48
-65 -146 -246 -158 -290 -2 -8 -12 -46 -22 -85 -30 -116 -31 -126 -34 -251 -6
-283 103 -551 310 -760 70 -71 184 -164 200 -164 3 0 23 -11 44 -24 21 -14 67
-37 102 -51 143 -59 188 -89 246 -160 34 -41 81 -124 88 -155 22 -92 22 -187
1 -232 -13 -28 -32 -43 -81 -67 -83 -41 -164 -120 -204 -199 -49 -96 -58 -208
-26 -329 18 -70 18 -73 0 -112 -10 -23 -21 -41 -24 -41 -4 0 -33 -25 -66 -56
-195 -184 -376 -216 -600 -109 -118 57 -161 73 -247 94 -343 84 -679 18 -946
-186 -77 -59 -208 -193 -225 -230 -6 -13 -13 -23 -18 -23 -4 0 -16 -19 -28
-42 -12 -24 -32 -62 -45 -85 -14 -24 -22 -43 -20 -43 3 0 -2 -13 -11 -29 -25
-49 -51 -140 -74 -256 -14 -72 -6 -318 13 -390 9 -33 18 -69 21 -80 4 -19 16
-51 35 -100 15 -40 73 -150 86 -166 8 -8 14 -19 14 -24 0 -12 105 -138 158
-189 57 -55 137 -116 151 -116 6 0 11 -4 11 -9 0 -14 196 -107 275 -130 161
-48 356 -60 510 -31 155 28 322 96 450 184 118 81 311 298 342 384 3 9 11 24
18 32 26 32 89 220 100 300 3 19 8 46 11 59 6 30 6 208 -1 241 -3 14 -8 41
-10 60 -3 19 -12 59 -20 88 -8 28 -22 75 -30 104 -18 67 -13 198 10 258 31 78
81 142 176 230 51 47 101 93 110 102 40 38 99 50 140 27 32 -16 58 -21 150
-25 86 -3 147 8 222 40 60 26 96 13 174 -61 22 -21 57 -54 79 -73 145 -131
197 -264 170 -433 -3 -21 -11 -47 -16 -58 -6 -10 -8 -19 -5 -19 2 0 -1 -17 -9
-38 -26 -73 -35 -108 -43 -167 -9 -70 -8 -257 1 -300 4 -16 9 -39 10 -50 36
-197 139 -395 291 -555 47 -50 113 -110 137 -125 9 -5 36 -24 59 -40 99 -69
267 -137 409 -166 111 -22 365 -17 458 10 18 5 35 10 37 10 3 1 6 1 8 2 1 0
10 2 19 4 34 6 164 59 218 88 131 71 284 200 358 302 20 28 39 52 43 55 4 3
21 32 39 65 17 33 35 67 40 75 29 50 82 206 95 275 32 184 23 340 -30 510 -26
84 -110 246 -166 320 -141 186 -337 327 -549 395 -36 11 -78 23 -94 26 -16 3
-33 7 -37 9 -14 9 -135 19 -229 19 -191 0 -329 -33 -522 -124 -95 -45 -152
-58 -244 -54 -87 3 -161 26 -234 72 -70 45 -228 200 -235 230 -3 15 2 54 11
87 18 70 19 203 1 221 -4 4 -7 14 -7 22 0 8 -14 43 -31 78 -38 77 -113 151
-195 192 -91 46 -99 59 -99 156 1 83 18 169 40 196 7 8 16 25 19 38 4 12 12
22 17 22 5 0 9 5 9 12 0 6 23 33 52 60 49 46 82 64 248 139 41 19 77 37 78 42
2 4 8 7 14 7 20 0 146 98 218 170 134 133 248 334 286 501 33 148 38 355 11
444 -3 11 -8 31 -11 45 -11 54 -15 68 -45 146 -17 44 -49 110 -71 147 -22 36
-40 69 -40 72 0 4 -6 12 -12 20 -7 7 -29 33 -48 56 -116 143 -272 260 -439
330 -114 48 -204 70 -344 84 -27 3 -53 7 -57 10 -4 2 -9 2 -12 0z m80 -489
c12 0 22 -5 22 -9 0 -5 4 -6 8 -3 20 12 146 -43 229 -101 150 -105 251 -290
258 -470 2 -64 -1 -93 -19 -188 -2 -11 -10 -33 -17 -50 -7 -16 -13 -32 -14
-35 0 -3 -9 -20 -18 -37 -85 -159 -247 -281 -420 -317 -84 -17 -212 -13 -295
8 -65 17 -154 55 -160 69 -2 4 -9 7 -16 7 -19 0 -124 98 -167 156 -83 112
-120 231 -114 368 4 105 11 150 31 188 8 15 14 32 14 39 0 28 86 154 145 211
27 26 150 112 164 114 3 0 13 3 21 7 54 22 123 39 175 44 33 3 61 6 62 7 2 2
22 0 45 -2 24 -3 53 -5 66 -6z m-1737 -3417 c214 -4 423 -138 522 -334 120
-239 72 -513 -123 -703 -125 -121 -285 -177 -492 -174 -147 2 -292 66 -404
177 -206 205 -237 525 -75 763 100 147 277 255 439 266 29 2 56 6 59 9 3 4 9
4 13 2 4 -3 32 -5 61 -6z m3409 -4 c14 -4 32 -8 40 -9 93 -15 202 -77 290
-166 50 -50 87 -98 111 -145 29 -56 53 -118 50 -132 0 -2 5 -22 12 -45 21 -75
10 -221 -25 -321 -97 -281 -391 -460 -678 -413 -70 11 -180 47 -180 57 0 6 -4
8 -8 5 -11 -6 -106 58 -153 104 -71 69 -159 208 -159 253 0 7 -3 17 -7 21 -4
3 -8 14 -10 24 -26 139 -21 239 19 357 42 127 116 221 253 322 21 16 111 57
150 69 46 14 101 24 111 20 8 -3 16 -1 19 3 5 9 123 6 165 -4z"/>
</g>
</svg>
