<svg width="35" height="36" viewBox="0 0 35 36" fill="none" xmlns="http://www.w3.org/2000/svg">
<path d="M34.6586 28.2065C34.5123 26.5375 33.7705 24.9769 32.5686 23.8096C31.3668 22.6424 29.7852 21.9465 28.1126 21.849C26.7944 21.7628 25.4781 22.043 24.3093 22.6585C23.7727 22.939 23.1623 23.046 22.5622 22.9648C21.9622 22.8835 21.4022 22.618 20.9596 22.2049L20.0942 21.3954C19.9963 21.3115 19.9269 21.1993 19.8957 21.0743C19.8644 20.9492 19.8728 20.8176 19.9198 20.6975C20.0237 20.4064 20.0757 20.0994 20.0733 19.7903C20.0685 19.2332 19.8972 18.6903 19.5813 18.2313C19.2654 17.7724 18.8194 17.4185 18.3007 17.2152C18.1794 17.1686 18.0751 17.0863 18.0016 16.9791C17.9281 16.8719 17.8888 16.745 17.889 16.615V16.2591C17.8997 15.693 18.0823 15.1435 18.4126 14.6836C18.7429 14.2236 19.2053 13.875 19.7383 13.684C21.0952 13.1943 22.2615 12.2863 23.0692 11.0911C23.8769 9.89587 24.2842 8.47506 24.2325 7.03343C24.104 5.23374 23.2889 3.55224 21.9557 2.33653C20.6225 1.12083 18.8731 0.463895 17.0692 0.501532C15.2654 0.539169 13.5449 1.2685 12.2636 2.53876C10.9822 3.80901 10.2379 5.52305 10.1846 7.32653C10.197 8.72255 10.6371 10.0812 11.4458 11.2192C12.2544 12.3573 13.3925 13.22 14.7067 13.691C15.2408 13.8922 15.7004 14.2522 16.0236 14.7226C16.3468 15.1931 16.518 15.7512 16.5142 16.3219V16.6709C16.5144 16.8008 16.4751 16.9278 16.4016 17.0349C16.3281 17.1421 16.2238 17.2244 16.1025 17.271C15.5838 17.4744 15.1378 17.8283 14.8219 18.2872C14.506 18.7461 14.3346 19.289 14.3299 19.8461C14.3265 20.1909 14.393 20.5327 14.5253 20.8511C14.569 20.9704 14.5772 21.0999 14.5487 21.2238C14.5202 21.3477 14.4563 21.4607 14.3648 21.5489L13.5762 22.2817C13.125 22.6919 12.5568 22.9508 11.9512 23.0221C11.3455 23.0935 10.7327 22.9736 10.1986 22.6794C9.03132 22.0581 7.71527 21.7707 6.39524 21.849C4.58974 21.9619 2.90305 22.7874 1.7062 24.1439C0.50936 25.5004 -0.0995927 27.2768 0.0133085 29.0823C0.12621 30.8878 0.951716 32.5745 2.30823 33.7713C3.66474 34.9682 5.44113 35.5771 7.24662 35.4642C8.89872 35.3729 10.4646 34.6975 11.6649 33.5586C12.8651 32.4197 13.6217 30.8913 13.7995 29.2463C13.884 28.301 13.7626 27.3487 13.4436 26.4549C13.2814 25.9576 13.2656 25.4242 13.398 24.9181C13.5303 24.4121 13.8054 23.9548 14.1903 23.6006L15.3209 22.5469C15.4194 22.4576 15.5414 22.3984 15.6724 22.3762C15.8035 22.3539 15.9381 22.3696 16.0606 22.4212C16.4273 22.5641 16.8186 22.6329 17.2121 22.6236C17.6523 22.6244 18.0868 22.5242 18.4822 22.3305C18.6066 22.2735 18.7451 22.2544 18.8803 22.2755C19.0156 22.2965 19.1417 22.357 19.2428 22.4492L20.2896 23.4262C20.682 23.7884 20.9578 24.2592 21.0821 24.7786C21.2064 25.298 21.1734 25.8426 20.9875 26.3432C20.7076 27.0978 20.5681 27.8972 20.5757 28.702C20.6414 30.5695 21.4463 32.3344 22.8133 33.6084C24.1803 34.8825 25.9974 35.5613 27.8649 35.4956C29.7324 35.4299 31.4973 34.6251 32.7714 33.2581C34.0454 31.8911 34.7243 30.074 34.6586 28.2065ZM10.6731 29.0579C10.5631 29.9321 10.1567 30.7421 9.52174 31.3529C8.88677 31.9638 8.0616 32.3385 7.18382 32.4146C6.67538 32.4985 6.15517 32.4778 5.65499 32.3538C5.15482 32.2298 4.68519 32.0051 4.27482 31.6935C3.86444 31.3818 3.52196 30.9897 3.26829 30.5411C3.01463 30.0926 2.85512 29.597 2.79952 29.0847C2.74391 28.5724 2.79339 28.0541 2.94491 27.5616C3.09643 27.069 3.34682 26.6126 3.68077 26.2201C4.01472 25.8276 4.4252 25.5074 4.88713 25.279C5.34906 25.0506 5.85272 24.9188 6.36732 24.8917C6.9377 24.8204 7.51679 24.8779 8.062 25.06C8.60721 25.2421 9.10466 25.5441 9.51775 25.9438C9.93084 26.3435 10.2491 26.8308 10.449 27.3697C10.649 27.9086 10.7255 28.4855 10.6731 29.0579ZM16.7864 11.1438C15.915 11.063 15.0974 10.6867 14.4691 10.0775C13.8408 9.46825 13.4396 8.66261 13.332 7.7941C13.2237 6.76503 13.5286 5.7351 14.1797 4.93088C14.8308 4.12666 15.7747 3.61403 16.8038 3.50575C17.8329 3.39748 18.8628 3.70243 19.667 4.35353C20.4713 5.00463 20.9839 5.94854 21.0922 6.9776C21.1446 7.55002 21.068 8.1269 20.8681 8.66582C20.6681 9.20473 20.3499 9.69196 19.9368 10.0917C19.5237 10.4914 19.0263 10.7934 18.481 10.9755C17.9358 11.1575 17.3567 11.2151 16.7864 11.1438ZM31.5112 29.0579C31.4526 29.7962 31.1851 30.5026 30.7399 31.0945C30.2947 31.6863 29.6901 32.1393 28.997 32.4002C28.3039 32.6612 27.5508 32.7195 26.8257 32.5682C26.1007 32.417 25.4337 32.0625 24.9027 31.5461C24.3718 31.0298 23.9987 30.3729 23.8273 29.6524C23.6559 28.9319 23.6931 28.1775 23.9346 27.4773C24.1761 26.7772 24.612 26.1602 25.1912 25.6986C25.7704 25.2371 26.469 24.9499 27.2054 24.8707C27.7772 24.8016 28.3572 24.8614 28.9028 25.0456C29.4485 25.2298 29.9461 25.5338 30.3589 25.9353C30.7718 26.3368 31.0896 26.8257 31.289 27.366C31.4884 27.9063 31.5643 28.4844 31.5112 29.0579Z" fill="#212121"/>
</svg>
