<svg width="201" height="36" viewBox="0 0 201 36" fill="none" xmlns="http://www.w3.org/2000/svg">
<path d="M192.961 29.1314C191.34 29.1314 189.935 28.7748 188.746 28.0614C187.557 27.3481 186.635 26.3502 185.98 25.0677C185.331 23.7852 185.007 22.2865 185.007 20.5716C185.007 18.8568 185.331 17.3545 185.98 16.0648C186.635 14.775 187.557 13.7735 188.746 13.0602C189.935 12.3469 191.34 11.9902 192.961 11.9902C194.583 11.9902 195.988 12.3469 197.176 13.0602C198.365 13.7735 199.284 14.775 199.932 16.0648C200.588 17.3545 200.916 18.8568 200.916 20.5716C200.916 22.2865 200.588 23.7852 199.932 25.0677C199.284 26.3502 198.365 27.3481 197.176 28.0614C195.988 28.7748 194.583 29.1314 192.961 29.1314ZM192.983 25.9972C193.862 25.9972 194.597 25.7558 195.188 25.273C195.779 24.7831 196.218 24.1274 196.506 23.306C196.802 22.4846 196.949 21.5696 196.949 20.5608C196.949 19.5449 196.802 18.6262 196.506 17.8048C196.218 16.9762 195.779 16.317 195.188 15.827C194.597 15.3371 193.862 15.0921 192.983 15.0921C192.082 15.0921 191.333 15.3371 190.735 15.827C190.144 16.317 189.701 16.9762 189.406 17.8048C189.117 18.6262 188.973 19.5449 188.973 20.5608C188.973 21.5696 189.117 22.4846 189.406 23.306C189.701 24.1274 190.144 24.7831 190.735 25.273C191.333 25.7558 192.082 25.9972 192.983 25.9972Z" fill="#0D0D12"/>
<path d="M174.641 28.8068V12.206H178.435V14.9728H178.608C178.91 14.0145 179.429 13.276 180.164 12.7572C180.906 12.2313 181.753 11.9683 182.704 11.9683C182.92 11.9683 183.162 11.9791 183.428 12.0007C183.702 12.0151 183.929 12.0403 184.109 12.0763V15.6753C183.943 15.6177 183.68 15.5673 183.32 15.524C182.967 15.4736 182.625 15.4484 182.293 15.4484C181.58 15.4484 180.939 15.6033 180.369 15.9131C179.807 16.2157 179.364 16.6372 179.04 17.1776C178.716 17.718 178.554 18.3413 178.554 19.0474V28.8068H174.641Z" fill="#0D0D12"/>
<path d="M155.532 28.8068V6.67236H163.832C165.533 6.67236 166.959 6.98939 168.112 7.62345C169.272 8.25751 170.148 9.12934 170.739 10.2389C171.337 11.3413 171.636 12.595 171.636 14.0001C171.636 15.4195 171.337 16.6804 170.739 17.7828C170.141 18.8852 169.258 19.7534 168.091 20.3875C166.923 21.0143 165.486 21.3277 163.778 21.3277H158.277V18.0314H163.238C164.232 18.0314 165.046 17.8584 165.681 17.5126C166.315 17.1667 166.783 16.6912 167.086 16.086C167.395 15.4807 167.55 14.7854 167.55 14.0001C167.55 13.2147 167.395 12.523 167.086 11.925C166.783 11.3269 166.311 10.8622 165.67 10.5307C165.036 10.1921 164.218 10.0228 163.216 10.0228H159.542V28.8068H155.532Z" fill="#0D0D12"/>
<path d="M145.731 29.153C144.174 29.153 142.834 28.7856 141.71 28.0506C140.586 27.3157 139.722 26.3034 139.116 25.0136C138.511 23.7239 138.208 22.2504 138.208 20.5932C138.208 18.9072 138.518 17.4194 139.138 16.1296C139.765 14.8327 140.637 13.8204 141.753 13.0926C142.877 12.3577 144.189 11.9902 145.688 11.9902C146.855 11.9902 147.907 12.2064 148.843 12.6387C149.78 13.071 150.547 13.6763 151.145 14.4544C151.743 15.2326 152.115 16.1404 152.259 17.178H149.708C149.513 16.4214 149.081 15.7513 148.411 15.1677C147.748 14.5769 146.855 14.2815 145.731 14.2815C144.736 14.2815 143.865 14.5409 143.115 15.0597C142.373 15.5712 141.793 16.2953 141.375 17.232C140.964 18.1615 140.759 19.2531 140.759 20.5068C140.759 21.7893 140.961 22.9061 141.364 23.8572C141.775 24.8083 142.351 25.5468 143.094 26.0728C143.843 26.5988 144.722 26.8618 145.731 26.8618C146.394 26.8618 146.995 26.7465 147.536 26.5159C148.076 26.2854 148.534 25.9539 148.908 25.5216C149.283 25.0893 149.549 24.5705 149.708 23.9653H152.259C152.115 24.9452 151.758 25.8278 151.189 26.6132C150.627 27.3914 149.881 28.011 148.951 28.4721C148.029 28.9261 146.956 29.153 145.731 29.153Z" fill="#0D0D12"/>
<path d="M124.039 18.8208V28.8072H121.488V12.2064H123.952V14.8003H124.168C124.557 13.9573 125.148 13.28 125.941 12.7684C126.733 12.2496 127.757 11.9902 129.01 11.9902C130.134 11.9902 131.118 12.2208 131.961 12.6819C132.804 13.1359 133.459 13.8276 133.928 14.757C134.396 15.6793 134.63 16.8465 134.63 18.2588V28.8072H132.08V18.4317C132.08 17.1275 131.741 16.1116 131.064 15.3839C130.386 14.649 129.457 14.2815 128.275 14.2815C127.461 14.2815 126.733 14.458 126.092 14.8111C125.458 15.1641 124.957 15.6793 124.59 16.3566C124.222 17.0339 124.039 17.8553 124.039 18.8208Z" fill="#0D0D12"/>
<path d="M106.493 35.0321C106.061 35.0321 105.675 34.9961 105.337 34.9241C104.998 34.8592 104.764 34.7944 104.634 34.7295L105.283 32.4815C105.902 32.64 106.45 32.6977 106.926 32.6544C107.401 32.6112 107.823 32.3986 108.19 32.0168C108.565 31.6421 108.907 31.0333 109.217 30.1902L109.692 28.8933L103.553 12.2061H106.32L110.903 25.4348H111.076L115.658 12.2061H118.425L111.378 31.2278C111.061 32.0852 110.669 32.7949 110.2 33.3569C109.732 33.9261 109.188 34.3476 108.568 34.6214C107.956 34.8952 107.264 35.0321 106.493 35.0321Z" fill="#0D0D12"/>
<path d="M98.1977 12.2063C98.068 11.1111 97.542 10.2609 96.6197 9.65569C95.6975 9.05045 94.5663 8.74783 93.2261 8.74783C92.2462 8.74783 91.3888 8.90635 90.6538 9.22338C89.9261 9.54041 89.3569 9.97632 88.9462 10.5311C88.5427 11.0859 88.341 11.7164 88.341 12.4225C88.341 13.0133 88.4815 13.5213 88.7625 13.9464C89.0507 14.3643 89.4181 14.7137 89.8649 14.9947C90.3116 15.2685 90.7799 15.4955 91.2699 15.6756C91.7598 15.8486 92.2101 15.9891 92.6208 16.0971L94.8689 16.7024C95.4453 16.8537 96.0866 17.0626 96.7927 17.3292C97.506 17.5958 98.1869 17.9597 98.8353 18.4208C99.491 18.8748 100.031 19.4584 100.457 20.1717C100.882 20.885 101.094 21.7604 101.094 22.798C101.094 23.994 100.781 25.0748 100.154 26.0403C99.5342 27.0058 98.6264 27.7732 97.4303 28.3424C96.2415 28.9116 94.7968 29.1962 93.0964 29.1962C91.5112 29.1962 90.1387 28.9404 88.9786 28.4289C87.8258 27.9173 86.9179 27.204 86.255 26.2889C85.5994 25.3738 85.2283 24.3111 85.1418 23.1006H87.9086C87.9807 23.9364 88.2617 24.6281 88.7517 25.1757C89.2488 25.7161 89.8757 26.1196 90.6322 26.3862C91.396 26.6456 92.2174 26.7753 93.0964 26.7753C94.1195 26.7753 95.0382 26.6095 95.8524 26.2781C96.6666 25.9395 97.3114 25.4711 97.787 24.8731C98.2625 24.2678 98.5003 23.5617 98.5003 22.7548C98.5003 22.0198 98.2949 21.4218 97.8842 20.9607C97.4736 20.4995 96.9332 20.1249 96.2631 19.8366C95.593 19.5484 94.8689 19.2963 94.0907 19.0801L91.3671 18.3019C89.6379 17.8048 88.2689 17.0951 87.2602 16.1728C86.2514 15.2505 85.7471 14.0437 85.7471 12.5522C85.7471 11.3129 86.0821 10.2321 86.7522 9.30984C87.4295 8.38037 88.3374 7.65985 89.4758 7.14828C90.6214 6.6295 91.9003 6.37012 93.3125 6.37012C94.7392 6.37012 96.0073 6.6259 97.1169 7.13747C98.2265 7.64184 99.1055 8.33354 99.754 9.21257C100.41 10.0916 100.756 11.0895 100.792 12.2063H98.1977Z" fill="#0D0D12"/>
<path d="M82.2153 12.2063V14.3678H73.6123V12.2063H82.2153ZM76.1197 8.229H78.6704V24.0516C78.6704 24.7722 78.7748 25.3125 78.9838 25.6728C79.1999 26.0259 79.4737 26.2636 79.8052 26.3861C80.1438 26.5014 80.5005 26.559 80.8752 26.559C81.1562 26.559 81.3867 26.5446 81.5669 26.5158C81.747 26.4798 81.8911 26.451 81.9992 26.4294L82.5179 28.7206C82.345 28.7855 82.1036 28.8503 81.7938 28.9151C81.484 28.9872 81.0913 29.0232 80.6158 29.0232C79.8952 29.0232 79.1891 28.8683 78.4974 28.5585C77.8129 28.2487 77.2437 27.7767 76.7898 27.1427C76.3431 26.5086 76.1197 25.7088 76.1197 24.7433V8.229Z" fill="#0D0D12"/>
<path d="M68.0774 28.807V12.2063H70.628V28.807H68.0774ZM69.3743 9.43946C68.8771 9.43946 68.4484 9.27013 68.0882 8.93149C67.7351 8.59284 67.5586 8.18575 67.5586 7.71021C67.5586 7.23466 67.7351 6.82757 68.0882 6.48892C68.4484 6.15028 68.8771 5.98096 69.3743 5.98096C69.8715 5.98096 70.2966 6.15028 70.6496 6.48892C71.0099 6.82757 71.19 7.23466 71.19 7.71021C71.19 8.18575 71.0099 8.59284 70.6496 8.93149C70.2966 9.27013 69.8715 9.43946 69.3743 9.43946Z" fill="#0D0D12"/>
<path d="M50.8652 28.8068V6.67236H64.1372V9.05008H53.5456V16.5291H63.1429V18.9068H53.5456V28.8068H50.8652Z" fill="#0D0D12"/>
<path d="M34.6586 28.2065C34.5123 26.5375 33.7705 24.9769 32.5686 23.8096C31.3668 22.6424 29.7852 21.9465 28.1126 21.849C26.7944 21.7628 25.4781 22.043 24.3093 22.6585C23.7727 22.939 23.1623 23.046 22.5622 22.9648C21.9622 22.8835 21.4022 22.618 20.9596 22.2049L20.0942 21.3954C19.9963 21.3115 19.9269 21.1993 19.8957 21.0743C19.8644 20.9492 19.8728 20.8176 19.9198 20.6975C20.0237 20.4064 20.0757 20.0994 20.0733 19.7903C20.0685 19.2332 19.8972 18.6903 19.5813 18.2313C19.2654 17.7724 18.8194 17.4185 18.3007 17.2152C18.1794 17.1686 18.0751 17.0863 18.0016 16.9791C17.9281 16.8719 17.8888 16.745 17.889 16.615V16.2591C17.8997 15.693 18.0823 15.1435 18.4126 14.6836C18.7429 14.2236 19.2053 13.875 19.7383 13.684C21.0952 13.1943 22.2615 12.2863 23.0692 11.0911C23.8769 9.89587 24.2842 8.47506 24.2325 7.03343C24.104 5.23374 23.2889 3.55224 21.9557 2.33653C20.6225 1.12083 18.8731 0.463895 17.0692 0.501532C15.2654 0.539169 13.5449 1.2685 12.2636 2.53876C10.9822 3.80901 10.2379 5.52305 10.1846 7.32653C10.197 8.72255 10.6371 10.0812 11.4458 11.2192C12.2544 12.3573 13.3925 13.22 14.7067 13.691C15.2408 13.8922 15.7004 14.2522 16.0236 14.7226C16.3468 15.1931 16.518 15.7512 16.5142 16.3219V16.6709C16.5144 16.8008 16.4751 16.9278 16.4016 17.0349C16.3281 17.1421 16.2238 17.2244 16.1025 17.271C15.5838 17.4744 15.1378 17.8283 14.8219 18.2872C14.506 18.7461 14.3346 19.289 14.3299 19.8461C14.3265 20.1909 14.393 20.5327 14.5253 20.8511C14.569 20.9704 14.5772 21.0999 14.5487 21.2238C14.5202 21.3477 14.4563 21.4607 14.3648 21.5489L13.5762 22.2817C13.125 22.6919 12.5568 22.9508 11.9512 23.0221C11.3455 23.0935 10.7327 22.9736 10.1986 22.6794C9.03132 22.0581 7.71527 21.7707 6.39524 21.849C4.58974 21.9619 2.90305 22.7874 1.7062 24.1439C0.50936 25.5004 -0.0995927 27.2768 0.0133085 29.0823C0.12621 30.8878 0.951716 32.5745 2.30823 33.7713C3.66474 34.9682 5.44113 35.5771 7.24662 35.4642C8.89872 35.3729 10.4646 34.6975 11.6649 33.5586C12.8651 32.4197 13.6217 30.8913 13.7995 29.2463C13.884 28.301 13.7626 27.3487 13.4436 26.4549C13.2814 25.9576 13.2656 25.4242 13.398 24.9181C13.5303 24.4121 13.8054 23.9548 14.1903 23.6006L15.3209 22.5469C15.4194 22.4576 15.5414 22.3984 15.6724 22.3762C15.8035 22.3539 15.9381 22.3696 16.0606 22.4212C16.4273 22.5641 16.8186 22.6329 17.2121 22.6236C17.6523 22.6244 18.0868 22.5242 18.4822 22.3305C18.6066 22.2735 18.7451 22.2544 18.8803 22.2755C19.0156 22.2965 19.1417 22.357 19.2428 22.4492L20.2896 23.4262C20.682 23.7884 20.9578 24.2592 21.0821 24.7786C21.2064 25.298 21.1734 25.8426 20.9875 26.3432C20.7076 27.0978 20.5681 27.8972 20.5757 28.702C20.6414 30.5695 21.4463 32.3344 22.8133 33.6084C24.1803 34.8825 25.9974 35.5613 27.8649 35.4956C29.7324 35.4299 31.4973 34.6251 32.7714 33.2581C34.0454 31.8911 34.7243 30.074 34.6586 28.2065ZM10.6731 29.0579C10.5631 29.9321 10.1567 30.7421 9.52174 31.3529C8.88677 31.9638 8.0616 32.3385 7.18382 32.4146C6.67538 32.4985 6.15517 32.4778 5.65499 32.3538C5.15482 32.2298 4.68519 32.0051 4.27482 31.6935C3.86444 31.3818 3.52196 30.9897 3.26829 30.5411C3.01463 30.0926 2.85512 29.597 2.79952 29.0847C2.74391 28.5724 2.79339 28.0541 2.94491 27.5616C3.09643 27.069 3.34682 26.6126 3.68077 26.2201C4.01472 25.8276 4.4252 25.5074 4.88713 25.279C5.34906 25.0506 5.85272 24.9188 6.36732 24.8917C6.9377 24.8204 7.51679 24.8779 8.062 25.06C8.60721 25.2421 9.10466 25.5441 9.51775 25.9438C9.93084 26.3435 10.2491 26.8308 10.449 27.3697C10.649 27.9086 10.7255 28.4855 10.6731 29.0579ZM16.7864 11.1438C15.915 11.063 15.0974 10.6867 14.4691 10.0775C13.8408 9.46825 13.4396 8.66261 13.332 7.7941C13.2237 6.76503 13.5286 5.7351 14.1797 4.93088C14.8308 4.12666 15.7747 3.61403 16.8038 3.50575C17.8329 3.39748 18.8628 3.70243 19.667 4.35353C20.4713 5.00463 20.9839 5.94854 21.0922 6.9776C21.1446 7.55002 21.068 8.1269 20.8681 8.66582C20.6681 9.20473 20.3499 9.69196 19.9368 10.0917C19.5237 10.4914 19.0263 10.7934 18.481 10.9755C17.9358 11.1575 17.3567 11.2151 16.7864 11.1438ZM31.5112 29.0579C31.4526 29.7962 31.1851 30.5026 30.7399 31.0945C30.2947 31.6863 29.6901 32.1393 28.997 32.4002C28.3039 32.6612 27.5508 32.7195 26.8257 32.5682C26.1007 32.417 25.4337 32.0625 24.9027 31.5461C24.3718 31.0298 23.9987 30.3729 23.8273 29.6524C23.6559 28.9319 23.6931 28.1775 23.9346 27.4773C24.1761 26.7772 24.612 26.1602 25.1912 25.6986C25.7704 25.2371 26.469 24.9499 27.2054 24.8707C27.7772 24.8016 28.3572 24.8614 28.9028 25.0456C29.4485 25.2298 29.9461 25.5338 30.3589 25.9353C30.7718 26.3368 31.0896 26.8257 31.289 27.366C31.4884 27.9063 31.5643 28.4844 31.5112 29.0579Z" fill="#212121"/>
</svg>
